<?xml version="1.0" encoding="utf-8"?>
<!-- Generator: Adobe Illustrator 23.0.1, SVG Export Plug-In . SVG Version: 6.00 Build 0)  -->
<svg version="1.1" id="Layer_1" xmlns="http://www.w3.org/2000/svg" xmlns:xlink="http://www.w3.org/1999/xlink" x="0px" y="0px"
	 viewBox="0 0 1000 1000" style="enable-background:new 0 0 1000 1000;" xml:space="preserve">
<style type="text/css">
	.st0{fill:#0E79BF;}
</style>
<g>
	<path class="st0" d="M302.3,370.4c-8.64-37.68-30.22-68.31-33.12-73.31c-4.69,7.02-21.85,34.07-30.69,64.09
		c-9.49,33.43-10.87,63.11-7.6,92.35s15.57,59.23,15.57,59.23c6.58,15.77,16.41,32.65,22.79,40.96
		c9.39-12.19,30.96-48.62,37.72-96.13C310.74,431.18,310.84,408.05,302.3,370.4L302.3,370.4z M269.17,544.34
		c-4.22-7.97-10.81-23.13-11.45-46.6c-0.2-22.66,8.91-42.04,11.55-46.09c2.33,4.05,10.23,20.94,11.18,44.07
		C280.99,518.4,273.46,536.2,269.17,544.34L269.17,544.34z M299.77,434.32c-0.27,14.35-1.96,29.55-4.22,38.6
		c0.84-15.63-1.05-37.65-4.69-54.87c-3.58-17.19-13.71-45.92-21.88-59.23c-7.5,12.66-16.71,37.51-21.58,59.06
		c-4.79,21.58-4.96,47.68-4.96,55.51c-1.32-6.58-4.49-30.12-3.58-53.76c0.74-19.52,5.27-39.54,7.8-48.76
		c9.56-30.79,20.36-50.48,22.32-53.62c2.06,3.14,15.67,27.35,22.72,52.81C298.72,395.56,300.14,419.94,299.77,434.32"/>
	<path class="st0" d="M283.69,562.5h-65.41v43.9c0.1-0.07,0.2-0.14,0.2-0.17c15.4-15.4,40.45-15.4,55.82,0
		c15.4,15.43,15.4,40.42,0,55.82c-0.1,0.07-0.1,0.14-0.2,0.17v0.03c-0.1,0.07-0.2,0.14-0.27,0.2
		c-15.3,15.26-35.45,22.89-55.55,22.89c-20.16,0-40.35-7.7-55.75-23.1c-27.08-27.15-30.29-69.09-9.66-99.75
		c2.8-4.15,6.01-8.07,9.66-11.75c15.4-15.4,35.56-23.1,55.75-23.1V422.1c-77.49,0-140.37,62.87-140.37,140.4
		s62.87,140.37,140.37,140.37c40.45,0,76.85-17.09,102.48-44.44V562.5H283.69z M403.73,677.85c0,9.83-1.22,25.05-20.94,25.05h-23.27
		c-19.62,0-20.83-15.23-20.83-25.05v-90.26c0-9.83,1.22-25.09,20.83-25.09h23.27c19.72,0,20.94,15.23,20.94,25.09v19.85h-28.16
		v-22.89c0-2.4-1.79-4.59-4.42-4.59c-1.59,0-4.42,0.98-4.42,4.59v95.73c0,3.61,2.8,4.59,4.42,4.59c2.63,0,4.42-2.19,4.42-4.59
		v-30.73h-4.22v-15.43h32.38V677.85z M445.94,650.16l4.79-70.17h1.59l4.86,70.17H445.94z M414.87,702.9h27.49l2.53-37.28h13.24
		l2.63,37.28h27.49l-14.65-140.37h-44.1L414.87,702.9z M498.68,685.24l26.95-105.25h-24.11V562.5h52.91v17.46l-26.84,104.91h28.53
		v18h-57.44V685.24z M597.42,637.67v-57.74H601c3.11,0,5.27,2.6,5.27,7.02v43.69c0,4.42-2.16,7.02-5.27,7.02H597.42z M569.25,702.9
		h28.16v-47.71h16.04c19.62,0,20.83-15.23,20.83-25.05v-42.55c0-9.83-1.22-25.09-20.83-25.09h-44.2V702.9z M676.8,633.44v-53.52
		h3.65c3.01,0,5.17,2.6,5.17,7.02v39.47c0,4.42-2.16,7.02-5.17,7.02H676.8z M717.32,702.9l-13.81-54.74
		c9.96-4.02,10.13-13.24,10.13-17.05v-43.52c0-9.83-1.11-25.09-20.83-25.09h-44.1v140.37h28.06v-51.9h2.06l9.56,51.93L717.32,702.9z
		 M769.32,680.28c0,2.4-1.79,4.63-4.42,4.63c-1.59,0-4.42-1.01-4.42-4.63v-95.73c0-3.61,2.8-4.59,4.42-4.59
		c2.63,0,4.42,2.19,4.42,4.59V680.28z M732.45,677.85c0,9.83,1.22,25.05,20.94,25.05h23.16c19.72,0,20.94-15.23,20.94-25.05v-90.26
		c0-9.83-1.22-25.09-20.94-25.09h-23.16c-19.72,0-20.94,15.23-20.94,25.09V677.85z M885.58,562.54h36.5V702.9h-28.06v-88.03h-1.05
		l-14.45,88.03H856.1l-14.45-88.03h-1.05v88.03h-28.06V562.54h36.5l18.2,98.67L885.58,562.54z"/>
</g>
</svg>
