<?xml version="1.0" encoding="utf-8"?>
<!-- Generator: Adobe Illustrator 24.0.2, SVG Export Plug-In . SVG Version: 6.00 Build 0)  -->
<svg version="1.0" id="Layer_1" xmlns="http://www.w3.org/2000/svg" xmlns:xlink="http://www.w3.org/1999/xlink" x="0px" y="0px"
	 viewBox="0 0 300 280" enable-background="new 0 0 300 280" xml:space="preserve">
<g>
	<path fill="#158ECE" d="M197.94,140.97c0,3.88,0.01,7.76,0,11.64c-0.02,3.84-3.11,6.89-6.95,6.88c-3.78-0.01-6.87-3.06-6.88-6.87
		c-0.02-7.81-0.01-15.63-0.01-23.44c0-3.05-0.01-6.1-0.01-9.14c0-11.11,8.08-20.52,19.06-22.21c12.23-1.88,23.7,6.59,25.56,18.87
		c1.83,12.03-6.36,23.44-18.28,25.48c-3.96,0.68-7.83,0.33-11.61-1.02c-0.23-0.08-0.47-0.16-0.71-0.24
		C198.1,140.9,198.07,140.92,197.94,140.97z M215.07,120.01c-0.01-4.72-3.85-8.56-8.57-8.55c-4.68,0.01-8.57,3.91-8.55,8.61
		c0.01,4.71,3.86,8.52,8.61,8.52C211.31,128.58,215.08,124.79,215.07,120.01z"/>
	<path fill="#158ECE" d="M158.07,97.61c12.38,0.01,22.39,10.04,22.39,22.43c0,12.4-10.07,22.47-22.47,22.47
		c-12.39,0-22.44-10.1-22.43-22.51C135.56,107.58,145.6,97.6,158.07,97.61z M158.04,128.58c4.69-0.01,8.52-3.81,8.54-8.5
		c0.03-4.72-3.89-8.64-8.62-8.62c-4.69,0.02-8.56,3.93-8.54,8.62C149.44,124.79,153.29,128.59,158.04,128.58z"/>
	<path fill="#158ECE" d="M117.42,125.44c-4.48,0-8.87,0-13.36,0c0,0.36,0,0.69,0,1.01c-0.03,3.35,0.07,6.71-0.14,10.05
		c-0.2,3.3-3.3,5.94-6.67,6.01c-3.4,0.07-6.43-2.42-6.96-5.71c-0.06-0.38-0.13-0.77-0.13-1.15c-0.01-10.39-0.01-20.79,0-31.18
		c0-2.86,1.8-5.38,4.47-6.42c2.63-1.02,5.68-0.3,7.61,1.82c1.27,1.4,1.82,3.08,1.82,4.95c0,2.58,0,5.16,0,7.73c0,0.3,0,0.6,0,0.97
		c4.45,0,8.84,0,13.36,0c0-0.29,0-0.58,0-0.87c0-2.69-0.01-5.38,0-8.07c0.01-3.57,2.7-6.62,6.12-6.94c3.72-0.34,6.9,1.98,7.62,5.57
		c0.09,0.46,0.1,0.94,0.1,1.41c0.01,10.28,0.01,20.57,0,30.85c0,3.85-2.9,6.89-6.63,7.04c-3.91,0.16-7.18-2.98-7.2-6.9
		c-0.01-3.08,0-6.15,0-9.23C117.42,126.08,117.42,125.78,117.42,125.44z"/>
	<path fill="#EF4337" d="M182.25,182.44c-20.8,0-39.38-12.88-46.58-32.35c-0.28-0.74-0.4-1.63-0.29-2.41
		c0.21-1.48,1.47-2.54,2.89-2.67c1.62-0.15,2.99,0.64,3.59,2.12c0.37,0.9,0.67,1.82,1.07,2.7c6.46,13.96,17.25,22.5,32.39,25.13
		c20.27,3.53,40.04-8.06,47.23-27.38c0.55-1.48,1.48-2.46,3.11-2.58c1.47-0.1,2.58,0.53,3.28,1.82c0.54,0.99,0.47,2,0.09,3.05
		c-3.39,9.15-8.97,16.68-16.75,22.56C203.58,179,193.19,182.44,182.25,182.44z"/>
	<path fill="#158ECE" d="M70.66,120.03c0-5.13,0-10.26,0-15.38c0-3.65,2.67-6.7,6.11-7.02c3.79-0.35,6.96,2.03,7.64,5.75
		c0.07,0.41,0.08,0.83,0.08,1.24c0,10.28,0.01,20.57,0,30.85c0,3.76-2.64,6.62-6.41,7.01c-3.37,0.35-6.62-2.15-7.33-5.67
		c-0.09-0.46-0.09-0.94-0.09-1.41C70.66,130.29,70.66,125.16,70.66,120.03z"/>
</g>
</svg>
