<?xml version="1.0" encoding="utf-8"?>
<!-- Generator: Adobe Illustrator 23.0.1, SVG Export Plug-In . SVG Version: 6.00 Build 0)  -->
<svg version="1.1" id="Layer_1" xmlns="http://www.w3.org/2000/svg" xmlns:xlink="http://www.w3.org/1999/xlink" x="0px" y="0px"
	 viewBox="0 0 1000 1000" style="enable-background:new 0 0 1000 1000;" xml:space="preserve">
<style type="text/css">
	.st0{fill:#EE2845;}
	.st1{fill:#FFFFFF;}
</style>
<g>
	<g>
		<path class="st0" d="M634,511C634,511,634,511,634,511c0,9.2,0.1,18.3,0,27.5c0,2,0.6,2.9,2.7,2.8c5.3-0.3,10.5,0.4,15.8-0.1
			c3.9-0.4,4.1-0.2,4.1-4.3c0-9.3,0-18.5,0.1-27.8c0-2,0-4,1.2-5.7c2.6-3.6,6.6-5.2,10.1-4.1c4.9,1.5,7.3,4.2,7.3,9.3
			c0.1,9.3,0.1,18.7,0,28c0,3.6,0.8,4.9,4.5,4.8c4.2-0.2,8.4,0,12.6,0c5,0,5.4-0.6,5.3-5.6c-0.1-9.1,0-18.2-0.1-27.3
			c0-6.8,7.3-10.7,12.2-8.9c4.2,1.5,6.3,4.3,6.3,9.2c0,9.6,0,19.2,0,28.8c0,1.8,0.3,3.4,2.3,3.5c4.9,0.2,9.9,0.1,14.8,0.1
			c1.3,0,2-0.8,2-2.3c0-7.9,0.2-15.9,0-23.8c-0.2-6.8,0.3-13.8-1.7-20.4c-2.3-7.4-8.8-15.5-18.2-15.9c-7.8-0.4-14.9,1.7-21.1,6.4
			c-2,1.6-3,1-4.2-0.5c-2.7-3.3-6.4-4.8-10.3-5.4c-8.7-1.4-16.2,1.6-23.2,6.6c-1.1,0.8-1.9,3.1-3.4,2.2c-1.1-0.7,0.2-2.6,0.4-3.9
			c0.5-2.8,0-3.5-2.8-3.5c-4.4-0.1-8.8-0.1-13.1-0.1c-3.3,0-3.8,0.5-3.8,3.8C634,493.1,634,502,634,511z"/>
		<path class="st0" d="M445.4,470.6C445.4,470.6,445.4,470.6,445.4,470.6c0.1-2.8,0-5.6,0.1-8.4c0-2-0.9-3.3-2.8-3.8
			c-11.2-2.8-22.5-3.6-33.8-0.7c-10.8,2.8-19.4,8.9-25.4,18.1c-7.4,11.4-8.7,23.8-5.3,36.9c2.8,11,9.7,18.7,19.3,24.3
			c6.2,3.6,13,5.3,20.3,5.8c9.2,0.6,18.3-0.1,27.1-2.9c2.4-0.8,3.5-2.2,3.5-4.7c-0.1-5.3-0.1-10.6-0.1-15.9
			c-0.1-3.3-0.7-3.8-3.7-2.5c-7.6,3.2-15.5,4.6-23.7,4.1c-17.3-1.1-24.5-16.4-18.5-30c3.7-8.5,10.3-12.9,19.9-12.8
			c6.8,0.1,13.3,0.8,19.5,3.9c2.6,1.3,3.6,0.7,3.8-2.4C445.5,476.5,445.4,473.5,445.4,470.6z"/>
		<path class="st0" d="M492.6,510.8c0,0-0.1,0-0.1,0c0,8.9,0,17.9,0,26.8c0,3,0.9,3.8,3.9,3.7c5-0.1,9.9-0.4,14.9-0.1
			c4.8,0.2,4.7,0.1,4.9-4.7c0-0.8,0-1.7,0-2.5c0-8.3,0-16.5,0-24.8c0-2.8,0.6-5.5,2.4-7.4c2.5-2.5,5.8-3.7,9.5-2.4
			c3.8,1.3,6.2,3.7,6.7,7.8c0.2,2,0.3,4.1,0.4,6.2c0.2,8-0.5,16,0,24c0.2,3.2,0.4,3.7,3.7,3.8c5.3,0.1,10.6,0.1,15.9,0.1
			c2.1,0,3.1-1,3.2-3.2c0.2-11,0.3-22,0.1-33c-0.1-3.3-0.6-6.5-1.4-9.8c-2.4-9.2-8.7-14.5-17.6-16.1c-8.6-1.6-16.4,1.5-23.3,6.8
			c-1.1,0.8-2,2.8-3.3,2c-1.1-0.7,0.2-2.4,0.5-3.6c0.8-3,0.2-4-3-4c-4.4-0.1-8.8,0-13.1,0c-3.4,0-4,0.6-4,4.1
			C492.5,493.3,492.6,502.1,492.6,510.8z"/>
		<path class="st0" d="M866.9,541.2C866.9,541.2,866.9,541.1,866.9,541.2c3.7-0.1,7.4,0,11.2-0.1c2,0,2.8-1.5,1.6-2.9
			c-1.4-1.6-2.2-3.5-3.4-5.1c-5-6.9-9.9-13.8-14.9-20.6c-1.4-2-1.7-3.9-0.2-5.9c3.6-4.8,7.3-9.6,10.9-14.4c2.1-2.8,4.1-5.6,6-8.5
			c1.3-2,0.4-3.4-1.9-3.4c-6.4,0-12.9,0.2-19.3,0.1c-2.3,0-3.9,0.7-5.2,2.7c-2.4,3.6-4.8,7.1-7.2,10.6c-1.6,2.3-2.2,2.3-3.7,0
			c-2.4-3.6-4.9-7.2-7.3-10.9c-1.1-1.8-2.6-2.3-4.6-2.3c-3.9,0.1-7.8,0-11.7,0c-3,0-6,0-8.9,0.1c-1.5,0.1-2.8,0.6-1.5,2.4
			c2.1,2.9,4.3,5.6,6.3,8.5c3.9,5.4,7.7,10.9,11.5,16.4c0.8,1.1,0.8,2,0,3.1c-4,5.7-7.8,11.4-12,17c-2.4,3.2-4.6,6.6-6.8,10.1
			c-1.2,1.9-0.7,3,1.2,3.1c7.3,0.4,14.5,0.4,21.8,0.1c1.6-0.1,2.7-0.7,3.6-2.1c2.6-4,5.4-7.9,8.2-11.8c1.8-2.5,2.7-2.4,4.2,0.3
			c2.4,4.2,5.5,7.8,8.2,11.8c0.9,1.4,2.1,1.9,3.8,1.9C860.1,541.1,863.5,541.2,866.9,541.2z"/>
		<path class="st0" d="M481.6,511.1C481.6,511.1,481.6,511.1,481.6,511.1c0-9,0-18,0-27c0-2.4-0.9-3.2-3-2.4
			c-5.6,2.2-11.1,1.8-16.7-0.2c-1.6-0.6-2.6-0.1-2.6,1.7c-0.1,2.6-0.3,5.1-0.3,7.7c0,12.5,0.1,24.9,0.2,37.4c0,3.1-0.1,6.1-0.1,9.2
			c0,2.4,1.1,3.7,3.7,3.9c5.2,0.3,10.4-0.1,15.6,0c2.3,0,3.3-0.8,3.3-3.2C481.6,529.1,481.6,520.1,481.6,511.1z"/>
		<path class="st0" d="M469.6,476.7c4.7-0.3,8.7-0.7,11.9-3.9c3.6-3.5,3.7-9.3,0.3-12.9c-4.5-4.6-13.2-5.6-19.8-2.1
			c-5.3,2.8-7,8.2-3.9,13.3C460.8,475.7,465.6,476.1,469.6,476.7z"/>
		<path class="st0" d="M350.1,519c-1.1-10.7-4.9-20.5-10.4-29.7c-1.7-2.8-1.6-5,0.4-7.7c2.5-3.2,4-7.1,4.9-11
			c1.6-6.9,1.2-14-0.5-20.9c-2.1-8.5-5.5-16.5-10.4-23.9c-6.8-10.3-14-20.2-23.8-27.9c-3.7-2.9-9.2-3.4-13.2-0.9
			c-4.6,2.9-6.4,7.6-5.1,12.6c0.9,3.3,3.1,5.4,5.4,7.8c7.6,7.5,14.3,15.8,19.5,25.2c3.2,5.8,6.2,11.7,5.6,18.7
			c-0.1,0.7,0.4,1.7-0.6,1.9c-0.8,0.2-1.3-0.7-1.7-1.2c-2-2.3-3.9-4.7-6.1-6.8c-6.6-6.6-13.5-12.9-20.6-18.9
			c-8.5-7.1-17.4-13.6-26.8-19.6c-8.6-5.5-17.5-10.5-26.9-14.7c-11.8-5.2-23.7-9.5-37-8.8c-4.7,0.3-9,1.2-13.1,3.7
			c-10.7,6.2-11.8,18.7-7.9,27.8c3.9,9,10.5,16.2,17.6,22.7c11,10.1,23,18.7,36,26.1c5.6,3.2,11.1,6.5,16.9,9.3
			c5,2.4,10.2,4.6,15.4,6.7c6.7,2.7,13.6,4.5,20.6,6.3c8.9,2.2,18.1,2.5,27.3,1.4c1.2-0.1,2.3,0.1,2.9,1.3
			c3.7,6.9,7.2,13.9,8.5,21.8c2.1,12.4-3.6,24.3-15.4,29.6c-6.6,3-13.6,3.8-20.7,3.9c-1.8,0-2.9-0.7-3.7-2.3
			c-1.1-2.1-2.1-4.3-3.3-6.4c-6.9-12.5-16-23.4-26.1-33.5c-9.6-9.6-19.9-18.6-30.9-26.7c-7-5.2-14.1-10.3-21.6-14.8
			c-10.9-6.6-22-12.9-34-17.6c-9.4-3.7-18.9-6.3-29.1-5.8c-7.6,0.4-13.8,3.3-18.1,9.6c-5.8,8.3-5.2,17.4-1.9,26.3
			c3.9,10.6,11.4,18.9,19.2,26.8c7.2,7.3,15.3,13.6,23.6,19.4c11.9,8.3,24.2,16.1,37.3,22.4c7.9,3.8,15.7,7.8,23.9,10.9
			c4.6,1.7,9.1,3.3,13.7,5c8,3,16.3,4.8,24.5,6.9c1,0.3,2.5-0.3,2.9,1.2c0.4,1.4-0.3,2.6-1.2,3.6c-2.5,2.8-5.9,3.9-9.4,4.3
			c-11.9,1.6-23.8,0.3-35.4-2.4c-13.4-3-26.6-6.7-38.7-13.6c-3.3-1.8-6.8-2.5-10.5-1.1c-4.3,1.7-7,4.8-7.3,9.4
			c-0.3,4.4,0.6,8.4,4.8,10.9c5.3,3.3,11.1,5.5,16.9,7.7c7.6,2.9,15.4,5.4,23.3,7.5c11.7,3,23.4,5.1,35.4,5.1
			c9.6,0.3,18.9-0.4,27.8-4.7c7.4-3.6,13.1-8.7,16.3-16.4c0.9-2.1,1.4-4.4,2.1-6.6c0.4-1.5,1.2-2.3,3-2.3c6.6-0.1,13.1-1.2,19.5-3
			c9.2-2.7,17.4-7.2,23.9-14.3C348,547.9,351.7,534.2,350.1,519z M299,473.6c-0.3,0.8-1.2,0.4-1.7,0.3c-8.4-1.4-16.5-4.1-24.4-7.2
			c-7.8-3.1-15.4-6.8-22.7-11c-12.4-7.2-24.4-15-34.9-25c-3.4-3.2-7-6.3-9.4-10.4c-0.6-1.1-1.6-2.1-0.9-3.4c0.7-1.4,2.2-0.8,3.5-1
			c5.7,0.3,11,2.6,16.2,4.8c13.2,5.6,25.6,12.6,37.3,20.8c9.3,6.5,18,13.6,26.5,21.1c3.4,3,6.5,6.4,9.7,9.6
			C298.6,472.6,299.2,473,299,473.6z M257.7,547.8c-0.5,0.8-1.2,0.1-1.8,0c-3.6-1-7.2-1.8-10.7-3.1c-8.1-3.1-16.3-6-24.1-9.8
			c-11-5.4-21.7-11.2-32-17.7c-5.9-3.7-11.6-7.6-17.1-11.9c-10.3-8.2-20.1-16.9-26.8-28.5c-0.3-0.5-0.6-1-0.7-1.6
			c-1.3-4.4-0.5-5.6,4.1-5.6c4.1,0,7.9,1.7,11.6,3.1c11.6,4.4,22.5,10.4,33,16.8c9.7,6,18.8,12.8,27.7,20
			c11,8.8,21.3,18.5,30.6,29.2c2,2.3,3.8,4.8,5.6,7.3C257.4,546.6,258.1,547.2,257.7,547.8z"/>
		<path class="st0" d="M802.1,497.2c-2.7-6.3-6.9-11-13-14.1c-7-3.6-14.5-4-22.2-2.7c-7.7,1.3-14,4.8-19,10.7
			c-3.9,4.6-5.5,10.1-6,16c-1,11,1.8,20.7,11.2,27.5c5.9,4.3,12.6,6.7,20,7.3c7.8,0.7,15.3-0.3,22.8-2.1c1.9-0.5,3.5-1.4,3.5-3.8
			c0-4.5,0-8.9,0-13.4c0-2.2-1-3-3.2-2.5c-3.8,0.8-7.6,1.5-11.4,2.2c-6.2,1.1-12,0.3-17.6-2.3c-0.9-0.4-1.8-1-1.5-2
			c0.3-1,1.4-0.6,2.2-0.6c5.5,0,10.9,0,16.4,0c0,0,0,0,0,0c5.7,0,11.4,0,17.1,0c2.3,0,3.5-1,3.6-3.4
			C805.1,508.1,804.4,502.5,802.1,497.2z M781.5,505.3c-2.6,0.1-5.3,0-7.9,0c0,0,0,0,0,0c-2.5,0-4.9,0-7.4,0c-0.6,0-1.2,0.1-1.5-0.6
			c-0.3-0.7,0-1.3,0.3-1.8c3.3-4.7,14.4-4.9,17.7-0.2C783.7,504,783.2,505.2,781.5,505.3z"/>
		<path class="st0" d="M605.7,480.7c-9.6-2.7-19.2-1.2-27.7,3.8c-7.8,4.6-12,12.2-13.3,21c-1,6.9-0.5,13.9,3.4,20.1
			c2.3,3.7,5,7.1,8.7,9.7c6.6,4.6,14.1,6.4,22,6.7c6.9,0.3,13.7-0.4,20.3-2.4c1.6-0.5,2.6-1.4,2.6-2.9c0.2-4.9,0.8-9.9,0.1-14.8
			c-0.3-1.8-1-2.7-3-2c-4.5,1.6-9.2,2.2-13.8,2.7c-5.3,0.6-10.5,0-15.2-2.9c-0.6-0.4-1.8-0.7-1.4-1.8c0.3-0.8,1.3-0.5,2-0.5
			c5,0,9.9,0,14.9,0c0,0,0-0.1,0-0.1c2.4,0,4.8,0,7.2,0c2.5,0,5,0.4,7.4,0.1c7.9-0.8,7.9,1.3,7.7-7.5
			C627.2,495.9,620,484.7,605.7,480.7z M605.8,504.4c-0.4,1.1-1.5,0.8-2.4,0.8c-2.4,0-4.8,0-7.2,0c0,0,0,0,0,0c-2.4,0-4.8,0-7.2,0
			c-0.7,0-1.6,0.1-1.9-0.8c-0.3-0.9,0.1-1.6,0.7-2.2c4.8-4.5,13-3.8,16.6-0.6C605.3,502.5,606.2,503.3,605.8,504.4z"/>
	</g>
</g>
</svg>
