<?xml version="1.0" encoding="utf-8"?>
<!-- Generator: Adobe Illustrator 24.2.0, SVG Export Plug-In . SVG Version: 6.00 Build 0)  -->
<svg version="1.0" id="Layer_1" xmlns="http://www.w3.org/2000/svg" xmlns:xlink="http://www.w3.org/1999/xlink" x="0px" y="0px"
	 viewBox="0 0 300 280" enable-background="new 0 0 300 280" xml:space="preserve">
<g>
	<path d="M70.96,185.66c1.35,0,2.19-0.19,2.58-0.6c0.38-0.4,0.58-0.73,0.58-0.97c0-0.26-0.2-0.59-0.58-0.99
		c-0.39-0.42-1.23-0.62-2.58-0.62h-5.92v3.19H70.96 M65.04,194.78h-5.02l-0.03-4.58v-6.75l0.03-4.59H73.3c2.26,0,3.81,0.4,4.63,1.19
		c0.81,0.81,1.22,1.93,1.22,3.4v1.28c0,1.47-0.41,2.6-1.22,3.39c-0.82,0.79-2.37,1.17-4.63,1.17h-8.26V194.78z"/>
	<path d="M96.23,185.02c0-0.89-0.21-1.52-0.59-1.92c-0.39-0.42-1.25-0.62-2.56-0.62h-2.84c-1.22,0-2.04,0.25-2.46,0.69
		c-0.42,0.43-0.6,1.04-0.6,1.86v3.63c0,0.78,0.18,1.4,0.6,1.83c0.42,0.46,1.24,0.67,2.46,0.67h2.84c1.31,0,2.17-0.21,2.55-0.61
		c0.34-0.38,0.55-1.04,0.6-1.88V185.02 M100.03,193.63c-0.81,0.76-2.37,1.15-4.6,1.15h-7.4c-2.23,0-3.8-0.36-4.62-1.15
		c-0.89-0.73-1.3-1.91-1.3-3.43v-6.75c0-1.53,0.41-2.69,1.3-3.45c0.82-0.74,2.39-1.14,4.62-1.14h7.4c2.23,0,3.79,0.4,4.6,1.19
		c0.83,0.81,1.26,1.93,1.26,3.4v6.75C101.29,191.69,100.86,192.81,100.03,193.63"/>
	<path d="M122.12,193.63c-0.82,0.76-2.36,1.15-4.58,1.15h-7.38c-2.23,0-3.78-0.36-4.65-1.15c-0.87-0.73-1.3-1.91-1.3-3.43v-6.75
		c0-1.53,0.43-2.69,1.3-3.45c0.87-0.74,2.42-1.14,4.65-1.14h7.38c2.23,0,3.76,0.4,4.58,1.19c0.85,0.81,1.26,1.93,1.26,3.4v1.57
		h-5.05c0-0.89-0.2-1.52-0.57-1.92c-0.4-0.42-1.24-0.62-2.56-0.62h-2.83c-1.22,0-2.05,0.25-2.49,0.69c-0.4,0.43-0.63,1.04-0.63,1.86
		v3.63c0,0.78,0.22,1.4,0.63,1.83c0.44,0.46,1.27,0.67,2.49,0.67h2.83c1.32,0,2.16-0.21,2.56-0.61c0.37-0.38,0.57-1.04,0.57-1.89
		h5.05v1.54C123.38,191.69,122.97,192.81,122.12,193.63"/>
	<polygon points="131.35,194.78 126.35,194.78 126.32,190.2 126.32,183.45 126.35,178.86 131.35,178.86 131.35,184.96 
		140.41,184.96 140.41,178.86 145.5,178.86 145.5,194.78 140.41,194.78 140.41,188.58 131.35,188.58 	"/>
	<path d="M154.91,188.58h-1.44c0.03,0.82,0.23,1.48,0.65,1.91c0.4,0.45,1.24,0.67,2.47,0.67h11.01v3.62h-13.22
		c-2.23,0-3.78-0.36-4.66-1.15c-0.85-0.73-1.29-1.91-1.29-3.43v-6.75c0-1.53,0.44-2.69,1.29-3.45c0.89-0.74,2.43-1.14,4.66-1.14
		h13.22v3.62h-11.01c-1.23,0-2.07,0.25-2.47,0.69c-0.42,0.43-0.62,1.01-0.65,1.8h14.13v3.62H154.91"/>
	<polygon points="206.36,182.47 199.45,182.47 199.45,178.86 218.6,178.86 218.6,182.47 211.39,182.47 211.39,194.78 206.36,194.78 
			"/>
	<path d="M225.9,187.96v3.18h5.92c1.33,0,2.19-0.21,2.57-0.6c0.38-0.42,0.57-0.74,0.57-0.98c0-0.26-0.19-0.61-0.57-1
		c-0.38-0.43-1.24-0.61-2.57-0.61H225.9 M225.9,184.34h8.27c2.23,0,3.78,0.4,4.6,1.21c0.83,0.77,1.24,1.91,1.24,3.39v1.26
		c0,1.47-0.41,2.61-1.24,3.39c-0.82,0.79-2.37,1.19-4.6,1.19h-13.3l-0.03-4.58v-6.78l0.03-4.58h5.03V184.34z"/>
	<path d="M175.38,186.41c0-1.99,1.76-1.77,1.76-1.77h5.08V188h-5.12C177.1,188,175.38,188.07,175.38,186.41 M192.33,188h-5.12v-3.36
		h5.09c0,0,1.76-0.22,1.76,1.77C194.06,188.07,192.33,188,192.33,188 M195.01,181.26h-7.8v-2.51h-4.96v2.51h-7.98
		c0,0-4.56,0.16-4.56,5c0,4.88,4.68,4.92,4.68,4.92h7.86v3.72h4.96v-3.72h7.67c0,0,4.66-0.04,4.66-4.92
		C199.54,181.42,195.01,181.26,195.01,181.26"/>
	<rect x="138.19" y="128.96" fill="#FFD200" width="7.03" height="33.12"/>
	<rect x="146.53" y="122.12" fill="#FFD200" width="7.03" height="39.96"/>
	<rect x="154.86" y="128.96" fill="#FFD200" width="7.02" height="33.12"/>
	<polygon points="128.58,130.27 121.56,124.34 121.56,107.39 128.58,107.39 	"/>
	<polygon points="136.92,137.66 129.87,131.12 129.87,99.88 136.92,99.88 	"/>
	<rect x="138.19" y="92.5" width="7.03" height="35.43"/>
	<rect x="146.53" y="85.1" width="7.03" height="35.57"/>
	<polygon points="171.51,130.27 178.53,124.34 178.53,107.39 171.51,107.39 	"/>
	<polygon points="163.18,137.66 170.19,131.12 170.19,99.88 163.18,99.88 	"/>
	<rect x="154.86" y="92.5" width="7.02" height="35.43"/>
</g>
</svg>
