<?xml version="1.0" encoding="utf-8"?>
<!-- Generator: Adobe Illustrator 23.0.1, SVG Export Plug-In . SVG Version: 6.00 Build 0)  -->
<svg version="1.1" id="Layer_1" xmlns="http://www.w3.org/2000/svg" xmlns:xlink="http://www.w3.org/1999/xlink" x="0px" y="0px"
	 viewBox="0 0 1000 1000" style="enable-background:new 0 0 1000 1000;" xml:space="preserve">
<style type="text/css">
	.st0{fill:#EF3E42;}
	.st1{fill:#00B274;}
</style>
<g>
	<path class="st0" d="M170.1,431.8c15,38.2-9.5,62.7-33.9,87.2c-22.7,25.1-42.8,51.1-2.5,98.1c-15.1-38.2,9.5-62.7,33.9-87.2
		C190.4,504.7,210.4,478.7,170.1,431.8"/>
	<g>
		<path class="st1" d="M133.7,382.9c15.1,38.2-9.5,62.7-33.9,87.2C77,495.3,57,521.3,97.3,568.2c-15.1-38.2,9.5-62.7,33.9-87.2
			C154,455.9,174,429.9,133.7,382.9"/>
		<path class="st1" d="M752,534.1v78h34.2v-28.6h37.6v-17.1h-37.6v-15.3h74.5v61h34.2v-61h31v-17.1"/>
		<path class="st1" d="M678.6,595.2v-13.5h44.6v-17.1h-44.6v-13.4h57.2v-17.1h-91.4v78h92.1v-16.9"/>
	</g>
	<path class="st0" d="M318.2,534.1h-94.7v17.1h30.3v61h34.2v-61h30.3"/>
	<path class="st0" d="M344.1,582.6l15.8-30.2l15.1,30.2H344.1z M385.7,534.1H349l-42.7,78h22.2l7-13.4h47.9l7,13.4h37.9"/>
	<path class="st1" d="M602.5,534.1v39l-54.7-39h-26.5v78h23.4v-42.9l56.1,42.9h25.1v-78"/>
	<path class="st0" d="M509.7,534.1H417v17.1h30.3v61h34.2v-61h28.3"/>
</g>
</svg>
