<?xml version="1.0"?>
<svg width="300" height="280" xmlns="http://www.w3.org/2000/svg" xmlns:svg="http://www.w3.org/2000/svg" xmlns:xlink="http://www.w3.org/1999/xlink" enable-background="new 0 0 300 280" version="1.0" xml:space="preserve">
 <g class="layer">
  <title>Layer 1</title>
  <use id="svg_24" transform="matrix(1.33827 0 0 1.44306 24.7432 -237.472)" x="-0.53" xlink:href="#svg_23" y="243.78"/>
 </g>
 <defs>
  <symbol clip-rule="evenodd" fill-rule="evenodd" height="33px" id="svg_23" version="1.1" viewBox="0 0 190 33" width="190px" xml:space="preserve" xmlns="http://www.w3.org/2000/svg" xmlns:xlink="http://www.w3.org/1999/xlink">
   <defs>
    <style type="text/css">
     <![CDATA[
    .fil1 {fill:#074179}
    .fil0 {fill:#FFA94E}
    .fil2 {fill:#FFA94E;fill-rule:nonzero}
   ]]>
    </style>
   </defs>
   <g id="svg_20">
    <metadata id="svg_22"/>
    <g id="svg_21">
     <g>
      <path class="fil0" d="m8.59,17.68l-1.91,-2.36c-1.05,1.99 -2.19,3.67 -2.59,5.78c-0.67,3.48 2.28,8.92 7.13,9.11c6.98,0.28 10.96,-6.95 5.8,-14.71c-1.39,-2.09 -5.85,-7.75 -7.77,-9.02c-3.33,2.43 -1.41,2.01 2.69,7.19c2.53,3.19 7.49,9.76 2.26,12.91c-3.78,2.27 -6.67,-0.68 -7.15,-4.1c-0.27,-1.91 1.1,-3.19 1.54,-4.8z"/>
      <path class="fil1" d="m9.91,5.16c1.45,2.21 3.99,4.53 5.53,6.65c1.57,2.17 3.87,5.2 4.73,7.79c1.04,3.12 0.33,6.54 -1.94,9.04c-2.79,3.06 -4.72,3.53 -8.98,3.53l0,0.66c4.42,0 7.27,0.15 10.46,-3.04c2.49,-2.51 4.37,-6.22 3.52,-9.95c-1.01,-4.43 -7.76,-13.62 -11.28,-16.32l-0.1,0c-1.08,0.47 -0.64,0.78 -1.94,1.64zm0.33,25.69c-1.09,-0.96 -5.79,-1.14 -7.07,-6.76c-0.92,-4.05 1.77,-7.03 3.44,-10.36c1.76,1.16 6.24,6.44 5.93,9.52c-0.18,1.79 -1.24,2.19 -1.64,3.65c1.91,-0.16 3.42,-1.71 4.07,-3.5c1.66,-4.57 -7.19,-13.18 -8.36,-13.95c-2.31,1.81 -6.69,9.36 -6.61,12.51c0.06,2.47 1.17,4.98 2.9,6.68c2.33,2.29 4.11,2.21 7.34,2.21z"/>
     </g>
     <path class="fil2" d="m36.54,28.87l-5.48,0l0,-21.31l16.59,0l0,4.26l-11.11,0l0,17.05zm13.4,0l-5.94,0l8.07,-21.31l6.09,0l8.07,21.31l-5.94,0l-1.37,-3.8l-7.61,0l-1.37,3.8zm2.74,-7.76l4.87,0l-2.44,-7.16l-2.43,7.16zm31.82,2.18c0,1.95 -0.47,3.38 -1.41,4.3c-0.93,0.92 -2.39,1.37 -4.38,1.37c-1.22,0 -2.54,0 -3.96,0c-1.42,0 -2.74,0 -3.96,0c-1.42,0 -2.84,-0.13 -4.26,-0.39l0,-3.9c1.38,0 2.73,0 4.05,0c1.14,0 2.33,0 3.58,0c1.25,0 2.36,0 3.33,0c0.47,0 0.84,-0.13 1.11,-0.39c0.28,-0.26 0.41,-0.61 0.41,-1.05l0,-1.15c0,-1.15 -0.6,-1.73 -1.82,-1.73l-7.31,0l0,-4.26l6.7,0c1.22,0 1.83,-0.61 1.83,-1.83l0,-0.61c0,-1.22 -0.61,-1.83 -1.83,-1.83l-9.74,0l0,-4.26l11.26,0c1.99,0 3.45,0.45 4.39,1.35c0.93,0.91 1.4,2.28 1.4,4.13c0,1.22 -0.28,2.21 -0.84,2.97c-0.56,0.76 -1.29,1.29 -2.21,1.6c0.45,0.12 0.89,0.31 1.34,0.57c0.45,0.25 0.84,0.6 1.17,1.04c0.34,0.44 0.61,0.97 0.83,1.6c0.21,0.63 0.32,1.35 0.32,2.17l0,0.3zm12.48,5.58l-5.48,0l0,-17.05l-6.4,0l0,-4.26l18.27,0l0,4.26l-6.39,0l0,17.05zm8.52,-21.31l12.79,0c2.13,0 3.68,0.48 4.65,1.45c0.96,0.96 1.44,2.51 1.44,4.64l0,3.04c0,2.13 -0.48,3.68 -1.44,4.65c-0.97,0.96 -2.52,1.44 -4.65,1.44l-7.3,0l0,6.09l-5.49,0l0,-21.31zm13.4,6.09c0,-1.22 -0.61,-1.83 -1.82,-1.83l-6.09,0l0,6.7l6.09,0c1.21,0 1.82,-0.61 1.82,-1.83l0,-3.04zm25.12,15.22l-16.9,0l0,-21.31l16.9,0l0,4.26l-11.41,0l0,4.11l8.98,0l0,4.27l-8.98,0l0,4.41l11.41,0l0,4.26zm15.53,0l0,-13.09l-7.31,13.09l-5.78,0l0,-21.31l5.48,0l0,13.09l7.31,-13.09l5.78,0l0,21.31l-5.48,0zm-5.48,-22.83c-2.64,0 -3.96,-1.32 -3.96,-3.96l0,-0.91l3.96,0l0,0.76c0,0.3 0.1,0.56 0.31,0.76c0.2,0.2 0.45,0.3 0.76,0.3l0.91,0c0.3,0 0.56,-0.1 0.76,-0.3c0.2,-0.2 0.31,-0.46 0.31,-0.76l0,-0.76l3.95,0l0,0.91c0,2.64 -1.31,3.96 -3.95,3.96l-3.05,0zm17.66,1.52l15.99,0l0,17.05l2.28,0l0,8.22l-5.18,0l-0.3,-3.96l-11.88,0l-0.3,3.96l-5.18,0l0,-8.22l1.98,0c0.33,-0.36 0.61,-0.78 0.86,-1.25c0.22,-0.4 0.43,-0.89 0.62,-1.44c0.19,-0.56 0.31,-1.19 0.35,-1.88l0.76,-12.48zm10.51,17.05l0,-12.79l-5.64,0l-0.45,7.61c-0.04,0.78 -0.16,1.48 -0.34,2.11c-0.18,0.62 -0.37,1.17 -0.58,1.64c-0.22,0.53 -0.47,1 -0.76,1.43l7.77,0z"/>
    </g>
   </g>
  </symbol>
 </defs>
</svg>